<?xml version="1.0" encoding="UTF-8" standalone="no"?>
<svg
   xmlns:dc="http://purl.org/dc/elements/1.1/"
   xmlns:cc="http://creativecommons.org/ns#"
   xmlns:rdf="http://www.w3.org/1999/02/22-rdf-syntax-ns#"
   xmlns:svg="http://www.w3.org/2000/svg"
   xmlns="http://www.w3.org/2000/svg"
   xmlns:sodipodi="http://sodipodi.sourceforge.net/DTD/sodipodi-0.dtd"
   xmlns:inkscape="http://www.inkscape.org/namespaces/inkscape"
   id="svg8"
   version="1.1"
   viewBox="0 0 210 297"
   preserveAspectRatio="none"
   sodipodi:docname="mg_banner_text.svg"
   inkscape:version="0.92.4 5da689c313, 2019-01-14">
  <sodipodi:namedview
     pagecolor="#ffffff"
     bordercolor="#666666"
     borderopacity="1"
     objecttolerance="10"
     gridtolerance="10"
     guidetolerance="10"
     inkscape:pageopacity="0"
     inkscape:pageshadow="2"
     inkscape:window-width="2560"
     inkscape:window-height="1421"
     id="namedview3785"
     showgrid="false"
     inkscape:zoom="8.2289562"
     inkscape:cx="116.19935"
     inkscape:cy="189.33107"
     inkscape:window-x="0"
     inkscape:window-y="0"
     inkscape:window-maximized="1"
     inkscape:current-layer="svg8" />
  <defs
     id="defs2" />
  <metadata
     id="metadata5">
    <rdf:RDF>
      <cc:Work
         rdf:about="">
        <dc:format>image/svg+xml</dc:format>
        <dc:type
           rdf:resource="http://purl.org/dc/dcmitype/StillImage" />
        <dc:title></dc:title>
      </cc:Work>
    </rdf:RDF>
  </metadata>
  <g
     id="layer2">
    <path
       id="path3723-3"
       d="m -33.738868,71.439322 c 27.3557031,9.16525 27.3564278,9.56577 27.3564278,9.56577 0,0 38.6738952,4.74051 93.3439572,0.24223 54.670063,-4.49829 109.324913,-17.40715 169.877973,-8.29819 60.5531,9.10898 84.23025,121.580998 20.52439,96.857588 -63.70583,-24.72337 -113.67904,-14.62596 -177.3399,-14.51803 -63.660872,0.10797 -89.825322,1.75436 -132.404789,-2.97954 -42.579471,-4.73387 -1.358059,-80.869828 -1.358059,-80.869828 z"
       style="fill:#149746;fill-opacity:1;stroke:none;stroke-width:0.27685052px;stroke-linecap:butt;stroke-linejoin:miter;stroke-opacity:1" />
  </g>
  <g
     id="layer1">
    <path
       id="path3723"
       d="m -27.214285,74.094182 c 26.45833256,8.69345 26.45833256,9.07143 26.45833256,9.07143 0,0 37.41964344,4.53572 90.33630944,0.37798 52.916663,-4.15774 105.833333,-16.25298 164.419633,-7.55953 58.58631,8.69346 81.26489,113.635418 19.65475,90.200888 -61.6101,-23.43452 -109.99105,-13.98512 -171.60117,-13.98512 -61.610118,0 -86.934522,1.51191 -128.133927,-3.02381 -41.199405,-4.53571 -1.133928,-75.081838 -1.133928,-75.081838 z"
       style="fill:#006539;fill-opacity:1;stroke:#006539;stroke-width:0.26458332px;stroke-linecap:butt;stroke-linejoin:miter;stroke-opacity:1" />
    <flowRoot
       style="fill:black;fill-opacity:1;stroke:none;font-family:sans-serif;font-style:normal;font-weight:normal;font-size:40px;line-height:1.25;letter-spacing:0px;word-spacing:0px"
       id="flowRoot4828"
       xml:space="preserve"><flowRegion
         id="flowRegion4830"><rect
           y="478.04236"
           x="55.558392"
           height="42.426407"
           width="228.29448"
           id="rect4832" /></flowRegion><flowPara
         id="flowPara4834" /></flowRoot>  </g>
  <g
     id="layer4">
    <flowRoot
       style="fill:black;fill-opacity:1;stroke:none;font-family:sans-serif;font-style:normal;font-weight:normal;font-size:40px;line-height:1.25;letter-spacing:0px;word-spacing:0px"
       id="flowRoot4808"
       xml:space="preserve"><flowRegion
         id="flowRegion4810"><rect
           y="349.75299"
           x="90.913727"
           height="137.38075"
           width="614.17273"
           id="rect4812" /></flowRegion><flowPara
         id="flowPara4814" /></flowRoot>  </g>
  <g
     aria-label="One Smile at a Time"
     transform="matrix(0.90653283,0,0,1.103104,0.60761047,0)"
     style="font-style:normal;font-weight:normal;font-size:27.72066689px;line-height:1.25;font-family:sans-serif;letter-spacing:0px;word-spacing:0px;fill:#ffffff;fill-opacity:1;stroke:none;stroke-width:0.69301671"
     id="text3789">
    <path
       d="m 99.356918,111.41175 q -0.794082,0 -1.263312,0.59195 -0.465621,0.59196 -0.465621,1.61343 0,1.01787 0.465621,1.60982 0.46923,0.59196 1.263312,0.59196 0.794082,0 1.256092,-0.59196 0.46562,-0.59195 0.46562,-1.60982 0,-1.02147 -0.46562,-1.61343 -0.46201,-0.59195 -1.256092,-0.59195 z m 0,-0.59195 q 1.133372,0 1.811952,0.7616 0.67858,0.75798 0.67858,2.03573 0,1.27414 -0.67858,2.03574 -0.67858,0.75799 -1.811952,0.75799 -1.136981,0 -1.819169,-0.75799 -0.678579,-0.75799 -0.678579,-2.03574 0,-1.27775 0.678579,-2.03573 0.682188,-0.7616 1.819169,-0.7616 z"
       style="font-style:normal;font-variant:normal;font-weight:normal;font-stretch:normal;font-size:7.39217806px;font-family:'DejaVu Sans';-inkscape-font-specification:'DejaVu Sans, Normal';font-variant-ligatures:normal;font-variant-caps:normal;font-variant-numeric:normal;font-feature-settings:normal;text-align:center;writing-mode:lr-tb;text-anchor:middle;fill:#ffffff;fill-opacity:1;stroke-width:0.69301671"
       id="path4629"
       inkscape:connector-curvature="0" />
    <path
       d="m 106.31957,113.86619 v 2.43999 h -0.66414 v -2.41834 q 0,-0.5739 -0.22379,-0.85905 -0.22378,-0.28515 -0.67136,-0.28515 -0.53781,0 -0.84822,0.3429 -0.31042,0.3429 -0.31042,0.93485 v 2.28479 h -0.66775 v -4.04259 h 0.66775 v 0.62804 q 0.23823,-0.36455 0.55947,-0.54503 0.32485,-0.18047 0.74716,-0.18047 0.69663,0 1.05396,0.43314 0.35734,0.42952 0.35734,1.26692 z"
       style="font-style:normal;font-variant:normal;font-weight:normal;font-stretch:normal;font-size:7.39217806px;font-family:'DejaVu Sans';-inkscape-font-specification:'DejaVu Sans, Normal';font-variant-ligatures:normal;font-variant-caps:normal;font-variant-numeric:normal;font-feature-settings:normal;text-align:center;writing-mode:lr-tb;text-anchor:middle;fill:#ffffff;fill-opacity:1;stroke-width:0.69301671"
       id="path4631"
       inkscape:connector-curvature="0" />
    <path
       d="m 111.10211,114.11885 v 0.32485 h -3.05361 q 0.0433,0.6858 0.41148,1.04674 0.37178,0.35734 1.03231,0.35734 0.3826,0 0.73994,-0.0938 0.36094,-0.0939 0.71467,-0.28154 v 0.62804 q -0.35734,0.1516 -0.73272,0.23101 -0.37538,0.0794 -0.7616,0.0794 -0.96733,0 -1.53402,-0.56308 -0.56307,-0.56307 -0.56307,-1.52319 0,-0.9926 0.5342,-1.57373 0.53781,-0.58473 1.44739,-0.58473 0.81574,0 1.28858,0.52698 0.47645,0.52337 0.47645,1.42574 z m -0.66414,-0.19491 q -0.007,-0.54503 -0.30681,-0.86988 -0.29597,-0.32485 -0.78686,-0.32485 -0.55586,0 -0.89154,0.31402 -0.33207,0.31402 -0.3826,0.88432 z"
       style="font-style:normal;font-variant:normal;font-weight:normal;font-stretch:normal;font-size:7.39217806px;font-family:'DejaVu Sans';-inkscape-font-specification:'DejaVu Sans, Normal';font-variant-ligatures:normal;font-variant-caps:normal;font-variant-numeric:normal;font-feature-settings:normal;text-align:center;writing-mode:lr-tb;text-anchor:middle;fill:#ffffff;fill-opacity:1;stroke-width:0.69301671"
       id="path4633"
       inkscape:connector-curvature="0" />
    <path
       d="m 117.80127,111.09412 v 0.71106 q -0.41509,-0.19852 -0.78325,-0.29597 -0.36817,-0.0975 -0.71107,-0.0975 -0.59556,0 -0.92041,0.23101 -0.32124,0.231 -0.32124,0.65692 0,0.35734 0.21295,0.54142 0.21657,0.18047 0.81574,0.29237 l 0.44036,0.0902 q 0.81574,0.15521 1.20195,0.54864 0.38982,0.38982 0.38982,1.04674 0,0.78326 -0.52698,1.18752 -0.52337,0.40426 -1.53763,0.40426 -0.38261,0 -0.81574,-0.0866 -0.42953,-0.0866 -0.89154,-0.25627 v -0.75077 q 0.44397,0.24905 0.86988,0.37538 0.42592,0.12634 0.8374,0.12634 0.62443,0 0.96372,-0.24545 0.33929,-0.24544 0.33929,-0.70023 0,-0.39704 -0.24544,-0.62083 -0.24183,-0.22379 -0.79769,-0.33568 l -0.44396,-0.0866 q -0.81574,-0.16242 -1.1803,-0.50893 -0.36455,-0.34651 -0.36455,-0.96373 0,-0.71467 0.50171,-1.12615 0.50533,-0.41148 1.38964,-0.41148 0.379,0 0.77243,0.0686 0.39343,0.0686 0.80491,0.20574 z"
       style="font-style:normal;font-variant:normal;font-weight:normal;font-stretch:normal;font-size:7.39217806px;font-family:'DejaVu Sans';-inkscape-font-specification:'DejaVu Sans, Normal';font-variant-ligatures:normal;font-variant-caps:normal;font-variant-numeric:normal;font-feature-settings:normal;text-align:center;writing-mode:lr-tb;text-anchor:middle;fill:#ffffff;fill-opacity:1;stroke-width:0.69301671"
       id="path4635"
       inkscape:connector-curvature="0" />
    <path
       d="m 122.38168,113.03962 q 0.24905,-0.44757 0.59556,-0.66053 0.34651,-0.21296 0.81574,-0.21296 0.63165,0 0.97455,0.44396 0.3429,0.44036 0.3429,1.2561 v 2.43999 h -0.66775 v -2.41834 q 0,-0.58112 -0.20574,-0.86266 -0.20574,-0.28154 -0.62805,-0.28154 -0.51615,0 -0.81574,0.3429 -0.29958,0.3429 -0.29958,0.93485 v 2.28479 h -0.66775 v -2.41834 q 0,-0.58473 -0.20574,-0.86266 -0.20574,-0.28154 -0.63527,-0.28154 -0.50893,0 -0.80852,0.34651 -0.29958,0.3429 -0.29958,0.93124 v 2.28479 h -0.66775 v -4.04259 h 0.66775 v 0.62804 q 0.2274,-0.37177 0.54503,-0.54864 0.31763,-0.17686 0.75438,-0.17686 0.44035,0 0.74715,0.22379 0.31042,0.22378 0.45841,0.6497 z"
       style="font-style:normal;font-variant:normal;font-weight:normal;font-stretch:normal;font-size:7.39217806px;font-family:'DejaVu Sans';-inkscape-font-specification:'DejaVu Sans, Normal';font-variant-ligatures:normal;font-variant-caps:normal;font-variant-numeric:normal;font-feature-settings:normal;text-align:center;writing-mode:lr-tb;text-anchor:middle;fill:#ffffff;fill-opacity:1;stroke-width:0.69301671"
       id="path4637"
       inkscape:connector-curvature="0" />
    <path
       d="m 126.4351,112.26359 h 0.66414 v 4.04259 h -0.66414 z m 0,-1.57373 h 0.66414 v 0.841 h -0.66414 z"
       style="font-style:normal;font-variant:normal;font-weight:normal;font-stretch:normal;font-size:7.39217806px;font-family:'DejaVu Sans';-inkscape-font-specification:'DejaVu Sans, Normal';font-variant-ligatures:normal;font-variant-caps:normal;font-variant-numeric:normal;font-feature-settings:normal;text-align:center;writing-mode:lr-tb;text-anchor:middle;fill:#ffffff;fill-opacity:1;stroke-width:0.69301671"
       id="path4639"
       inkscape:connector-curvature="0" />
    <path
       d="m 128.48888,110.68986 h 0.66415 v 5.61632 h -0.66415 z"
       style="font-style:normal;font-variant:normal;font-weight:normal;font-stretch:normal;font-size:7.39217806px;font-family:'DejaVu Sans';-inkscape-font-specification:'DejaVu Sans, Normal';font-variant-ligatures:normal;font-variant-caps:normal;font-variant-numeric:normal;font-feature-settings:normal;text-align:center;writing-mode:lr-tb;text-anchor:middle;fill:#ffffff;fill-opacity:1;stroke-width:0.69301671"
       id="path4641"
       inkscape:connector-curvature="0" />
    <path
       d="m 134.00053,114.11885 v 0.32485 h -3.0536 q 0.0433,0.6858 0.41148,1.04674 0.37177,0.35734 1.0323,0.35734 0.38261,0 0.73994,-0.0938 0.36095,-0.0939 0.71468,-0.28154 v 0.62804 q -0.35734,0.1516 -0.73272,0.23101 -0.37539,0.0794 -0.7616,0.0794 -0.96734,0 -1.53402,-0.56308 -0.56308,-0.56307 -0.56308,-1.52319 0,-0.9926 0.5342,-1.57373 0.53781,-0.58473 1.4474,-0.58473 0.81574,0 1.28858,0.52698 0.47644,0.52337 0.47644,1.42574 z m -0.66414,-0.19491 q -0.007,-0.54503 -0.3068,-0.86988 -0.29598,-0.32485 -0.78686,-0.32485 -0.55586,0 -0.89154,0.31402 -0.33207,0.31402 -0.3826,0.88432 z"
       style="font-style:normal;font-variant:normal;font-weight:normal;font-stretch:normal;font-size:7.39217806px;font-family:'DejaVu Sans';-inkscape-font-specification:'DejaVu Sans, Normal';font-variant-ligatures:normal;font-variant-caps:normal;font-variant-numeric:normal;font-feature-settings:normal;text-align:center;writing-mode:lr-tb;text-anchor:middle;fill:#ffffff;fill-opacity:1;stroke-width:0.69301671"
       id="path4643"
       inkscape:connector-curvature="0" />
    <path
       d="m 139.27757,114.27406 q -0.80491,0 -1.11533,0.18408 -0.31041,0.18408 -0.31041,0.62804 0,0.35373 0.23101,0.56308 0.23461,0.20574 0.63526,0.20574 0.55225,0 0.88432,-0.38982 0.33568,-0.39343 0.33568,-1.04314 v -0.14798 z m 1.32467,-0.27432 v 2.30644 h -0.66414 v -0.61361 q -0.2274,0.36817 -0.56669,0.54503 -0.33928,0.17326 -0.83017,0.17326 -0.62083,0 -0.98899,-0.34651 -0.36456,-0.35012 -0.36456,-0.93485 0,-0.68219 0.45479,-1.0287 0.4584,-0.34651 1.36438,-0.34651 h 0.93124 v -0.065 q 0,-0.4584 -0.30319,-0.70745 -0.29959,-0.25266 -0.84462,-0.25266 -0.34651,0 -0.67497,0.083 -0.32846,0.083 -0.63165,0.24906 v -0.61361 q 0.36455,-0.14077 0.70745,-0.20935 0.3429,-0.0722 0.66775,-0.0722 0.8771,0 1.31024,0.45479 0.43313,0.45479 0.43313,1.37882 z"
       style="font-style:normal;font-variant:normal;font-weight:normal;font-stretch:normal;font-size:7.39217806px;font-family:'DejaVu Sans';-inkscape-font-specification:'DejaVu Sans, Normal';font-variant-ligatures:normal;font-variant-caps:normal;font-variant-numeric:normal;font-feature-settings:normal;text-align:center;writing-mode:lr-tb;text-anchor:middle;fill:#ffffff;fill-opacity:1;stroke-width:0.69301671"
       id="path4645"
       inkscape:connector-curvature="0" />
    <path
       d="m 142.62715,111.11578 v 1.14781 h 1.36798 v 0.51615 h -1.36798 v 2.19455 q 0,0.4945 0.13355,0.63527 0.13716,0.14077 0.55225,0.14077 h 0.68218 v 0.55585 h -0.68218 q -0.76882,0 -1.06119,-0.28514 -0.29236,-0.28876 -0.29236,-1.04675 v -2.19455 h -0.48728 v -0.51615 h 0.48728 v -1.14781 z"
       style="font-style:normal;font-variant:normal;font-weight:normal;font-stretch:normal;font-size:7.39217806px;font-family:'DejaVu Sans';-inkscape-font-specification:'DejaVu Sans, Normal';font-variant-ligatures:normal;font-variant-caps:normal;font-variant-numeric:normal;font-feature-settings:normal;text-align:center;writing-mode:lr-tb;text-anchor:middle;fill:#ffffff;fill-opacity:1;stroke-width:0.69301671"
       id="path4647"
       inkscape:connector-curvature="0" />
    <path
       d="m 149.0556,114.27406 q -0.80491,0 -1.11532,0.18408 -0.31042,0.18408 -0.31042,0.62804 0,0.35373 0.23101,0.56308 0.23461,0.20574 0.63526,0.20574 0.55225,0 0.88432,-0.38982 0.33568,-0.39343 0.33568,-1.04314 v -0.14798 z m 1.32467,-0.27432 v 2.30644 h -0.66414 v -0.61361 q -0.2274,0.36817 -0.56669,0.54503 -0.33928,0.17326 -0.83017,0.17326 -0.62083,0 -0.98899,-0.34651 -0.36456,-0.35012 -0.36456,-0.93485 0,-0.68219 0.45479,-1.0287 0.4584,-0.34651 1.36438,-0.34651 h 0.93124 v -0.065 q 0,-0.4584 -0.30319,-0.70745 -0.29959,-0.25266 -0.84462,-0.25266 -0.34651,0 -0.67497,0.083 -0.32846,0.083 -0.63165,0.24906 v -0.61361 q 0.36455,-0.14077 0.70745,-0.20935 0.3429,-0.0722 0.66775,-0.0722 0.8771,0 1.31024,0.45479 0.43313,0.45479 0.43313,1.37882 z"
       style="font-style:normal;font-variant:normal;font-weight:normal;font-stretch:normal;font-size:7.39217806px;font-family:'DejaVu Sans';-inkscape-font-specification:'DejaVu Sans, Normal';font-variant-ligatures:normal;font-variant-caps:normal;font-variant-numeric:normal;font-feature-settings:normal;text-align:center;writing-mode:lr-tb;text-anchor:middle;fill:#ffffff;fill-opacity:1;stroke-width:0.69301671"
       id="path4649"
       inkscape:connector-curvature="0" />
    <path
       d="m 153.37973,110.91726 h 4.55876 v 0.6136 h -1.91302 v 4.77532 h -0.73272 v -4.77532 h -1.91302 z"
       style="font-style:normal;font-variant:normal;font-weight:normal;font-stretch:normal;font-size:7.39217806px;font-family:'DejaVu Sans';-inkscape-font-specification:'DejaVu Sans, Normal';font-variant-ligatures:normal;font-variant-caps:normal;font-variant-numeric:normal;font-feature-settings:normal;text-align:center;writing-mode:lr-tb;text-anchor:middle;fill:#ffffff;fill-opacity:1;stroke-width:0.69301671"
       id="path4651"
       inkscape:connector-curvature="0" />
    <path
       d="m 158.38606,112.26359 h 0.66414 v 4.04259 h -0.66414 z m 0,-1.57373 h 0.66414 v 0.841 h -0.66414 z"
       style="font-style:normal;font-variant:normal;font-weight:normal;font-stretch:normal;font-size:7.39217806px;font-family:'DejaVu Sans';-inkscape-font-specification:'DejaVu Sans, Normal';font-variant-ligatures:normal;font-variant-caps:normal;font-variant-numeric:normal;font-feature-settings:normal;text-align:center;writing-mode:lr-tb;text-anchor:middle;fill:#ffffff;fill-opacity:1;stroke-width:0.69301671"
       id="path4653"
       inkscape:connector-curvature="0" />
    <path
       d="m 163.58729,113.03962 q 0.24905,-0.44757 0.59556,-0.66053 0.34651,-0.21296 0.81574,-0.21296 0.63166,0 0.97456,0.44396 0.3429,0.44036 0.3429,1.2561 v 2.43999 h -0.66776 v -2.41834 q 0,-0.58112 -0.20573,-0.86266 -0.20574,-0.28154 -0.62805,-0.28154 -0.51615,0 -0.81574,0.3429 -0.29958,0.3429 -0.29958,0.93485 v 2.28479 h -0.66776 v -2.41834 q 0,-0.58473 -0.20573,-0.86266 -0.20574,-0.28154 -0.63527,-0.28154 -0.50893,0 -0.80852,0.34651 -0.29958,0.3429 -0.29958,0.93124 v 2.28479 h -0.66776 v -4.04259 h 0.66776 v 0.62804 q 0.22739,-0.37177 0.54502,-0.54864 0.31764,-0.17686 0.75438,-0.17686 0.44036,0 0.74716,0.22379 0.31041,0.22378 0.4584,0.6497 z"
       style="font-style:normal;font-variant:normal;font-weight:normal;font-stretch:normal;font-size:7.39217806px;font-family:'DejaVu Sans';-inkscape-font-specification:'DejaVu Sans, Normal';font-variant-ligatures:normal;font-variant-caps:normal;font-variant-numeric:normal;font-feature-settings:normal;text-align:center;writing-mode:lr-tb;text-anchor:middle;fill:#ffffff;fill-opacity:1;stroke-width:0.69301671"
       id="path4655"
       inkscape:connector-curvature="0" />
    <path
       d="m 171.09859,114.11885 v 0.32485 h -3.05361 q 0.0433,0.6858 0.41148,1.04674 0.37178,0.35734 1.03231,0.35734 0.3826,0 0.73994,-0.0938 0.36094,-0.0939 0.71467,-0.28154 v 0.62804 q -0.35734,0.1516 -0.73272,0.23101 -0.37538,0.0794 -0.7616,0.0794 -0.96733,0 -1.53402,-0.56308 -0.56307,-0.56307 -0.56307,-1.52319 0,-0.9926 0.5342,-1.57373 0.53781,-0.58473 1.44739,-0.58473 0.81574,0 1.28858,0.52698 0.47645,0.52337 0.47645,1.42574 z m -0.66414,-0.19491 q -0.007,-0.54503 -0.30681,-0.86988 -0.29597,-0.32485 -0.78686,-0.32485 -0.55586,0 -0.89154,0.31402 -0.33207,0.31402 -0.3826,0.88432 z"
       style="font-style:normal;font-variant:normal;font-weight:normal;font-stretch:normal;font-size:7.39217806px;font-family:'DejaVu Sans';-inkscape-font-specification:'DejaVu Sans, Normal';font-variant-ligatures:normal;font-variant-caps:normal;font-variant-numeric:normal;font-feature-settings:normal;text-align:center;writing-mode:lr-tb;text-anchor:middle;fill:#ffffff;fill-opacity:1;stroke-width:0.69301671"
       id="path4657"
       inkscape:connector-curvature="0" />
  </g>
  <g
     aria-label="Improving Lives"
     transform="scale(0.90653283,1.103104)"
     style="font-style:normal;font-variant:normal;font-weight:bold;font-stretch:normal;font-size:11.39049435px;line-height:1.25;font-family:sans-serif;-inkscape-font-specification:'sans-serif, Bold';font-variant-ligatures:normal;font-variant-caps:normal;font-variant-numeric:normal;font-feature-settings:normal;text-align:start;letter-spacing:0px;word-spacing:0px;writing-mode:lr-tb;text-anchor:start;fill:#ffffff;fill-opacity:1;stroke:none;stroke-width:0.60219616"
     id="text3803">
    <path
       d="m 86.824977,95.480549 h 2.14128 v 8.303711 h -2.14128 z"
       style="font-style:normal;font-variant:normal;font-weight:bold;font-stretch:normal;font-size:11.39049435px;font-family:sans-serif;-inkscape-font-specification:'sans-serif, Bold';font-variant-ligatures:normal;font-variant-caps:normal;font-variant-numeric:normal;font-feature-settings:normal;text-align:start;writing-mode:lr-tb;text-anchor:start;fill:#ffffff;fill-opacity:1;stroke-width:0.60219616"
       id="path4660" />
    <path
       d="m 96.747166,98.589575 q 0.3782,-0.578423 0.895444,-0.878759 0.522806,-0.305897 1.145723,-0.305897 1.073421,0 1.635157,0.66185 0.56174,0.66185 0.56174,1.924371 v 3.79312 h -2.002235 v -3.24807 q 0.0056,-0.0723 0.0056,-0.15016 0.0056,-0.0779 0.0056,-0.22248 0,-0.661845 -0.194662,-0.956619 -0.194662,-0.300335 -0.628479,-0.300335 -0.5673,0 -0.878759,0.467188 -0.305897,0.467188 -0.317021,1.351506 v 3.05897 h -2.002235 v -3.24807 q 0,-1.034485 -0.177977,-1.329259 -0.177976,-0.300335 -0.634041,-0.300335 -0.572862,0 -0.884321,0.47275 -0.311458,0.467188 -0.311458,1.340384 v 3.06453 H 90.96293 v -6.229173 h 2.002236 v 0.912129 q 0.367076,-0.528367 0.839826,-0.795332 0.478312,-0.266965 1.051174,-0.266965 0.645164,0 1.140161,0.311459 0.494998,0.311459 0.750839,0.873197 z"
       style="font-style:normal;font-variant:normal;font-weight:bold;font-stretch:normal;font-size:11.39049435px;font-family:sans-serif;-inkscape-font-specification:'sans-serif, Bold';font-variant-ligatures:normal;font-variant-caps:normal;font-variant-numeric:normal;font-feature-settings:normal;text-align:start;writing-mode:lr-tb;text-anchor:start;fill:#ffffff;fill-opacity:1;stroke-width:0.60219616"
       id="path4662" />
    <path
       d="m 104.83397,102.88326 v 3.27032 h -1.99111 v -8.598493 h 1.99111 v 0.912129 q 0.41157,-0.545053 0.91213,-0.800894 0.50056,-0.261403 1.15129,-0.261403 1.15128,0 1.891,0.917692 0.73971,0.912129 0.73971,2.352629 0,1.44049 -0.73971,2.35819 -0.73972,0.91212 -1.891,0.91212 -0.65073,0 -1.15129,-0.25584 -0.50056,-0.2614 -0.91213,-0.80645 z m 1.3237,-4.032282 q -0.6396,0 -0.98443,0.47275 -0.33927,0.467188 -0.33927,1.351512 0,0.88432 0.33927,1.35707 0.34483,0.46719 0.98443,0.46719 0.6396,0 0.97331,-0.46719 0.33927,-0.46719 0.33927,-1.35707 0,-0.889885 -0.33927,-1.357074 -0.33371,-0.467188 -0.97331,-0.467188 z"
       style="font-style:normal;font-variant:normal;font-weight:bold;font-stretch:normal;font-size:11.39049435px;font-family:sans-serif;-inkscape-font-specification:'sans-serif, Bold';font-variant-ligatures:normal;font-variant-caps:normal;font-variant-numeric:normal;font-feature-settings:normal;text-align:start;writing-mode:lr-tb;text-anchor:start;fill:#ffffff;fill-opacity:1;stroke-width:0.60219616"
       id="path4664" />
    <path
       d="m 115.6238,99.251425 q -0.26141,-0.122359 -0.52281,-0.177976 -0.25584,-0.06118 -0.51724,-0.06118 -0.76753,0 -1.18466,0.494997 -0.41157,0.489436 -0.41157,1.407124 v 2.86987 h -1.99111 v -6.229173 h 1.99111 v 1.023365 q 0.38376,-0.611794 0.87876,-0.889883 0.50056,-0.28365 1.19578,-0.28365 0.10011,0 0.21691,0.01112 0.11679,0.0056 0.33926,0.03337 z"
       style="font-style:normal;font-variant:normal;font-weight:bold;font-stretch:normal;font-size:11.39049435px;font-family:sans-serif;-inkscape-font-specification:'sans-serif, Bold';font-variant-ligatures:normal;font-variant-caps:normal;font-variant-numeric:normal;font-feature-settings:normal;text-align:start;writing-mode:lr-tb;text-anchor:start;fill:#ffffff;fill-opacity:1;stroke-width:0.60219616"
       id="path4666" />
    <path
       d="m 119.57821,98.828731 q -0.66185,0 -1.01224,0.478312 -0.34483,0.47275 -0.34483,1.368197 0,0.89544 0.34483,1.37375 0.35039,0.47275 1.01224,0.47275 0.65073,0 0.99556,-0.47275 0.34483,-0.47831 0.34483,-1.37375 0,-0.895447 -0.34483,-1.368197 -0.34483,-0.478312 -0.99556,-0.478312 z m 0,-1.423812 q 1.60735,0 2.50836,0.867636 0.90656,0.867635 0.90656,2.402685 0,1.53504 -0.90656,2.40268 -0.90101,0.86763 -2.50836,0.86763 -1.61291,0 -2.52504,-0.86763 -0.90657,-0.86764 -0.90657,-2.40268 0,-1.53505 0.90657,-2.402685 0.91213,-0.867636 2.52504,-0.867636 z"
       style="font-style:normal;font-variant:normal;font-weight:bold;font-stretch:normal;font-size:11.39049435px;font-family:sans-serif;-inkscape-font-specification:'sans-serif, Bold';font-variant-ligatures:normal;font-variant-caps:normal;font-variant-numeric:normal;font-feature-settings:normal;text-align:start;writing-mode:lr-tb;text-anchor:start;fill:#ffffff;fill-opacity:1;stroke-width:0.60219616"
       id="path4668" />
    <path
       d="m 123.65499,97.555087 h 1.99111 l 1.55173,4.304803 1.54617,-4.304803 h 1.99667 l -2.45273,6.229173 h -2.18578 z"
       style="font-style:normal;font-variant:normal;font-weight:bold;font-stretch:normal;font-size:11.39049435px;font-family:sans-serif;-inkscape-font-specification:'sans-serif, Bold';font-variant-ligatures:normal;font-variant-caps:normal;font-variant-numeric:normal;font-feature-settings:normal;text-align:start;writing-mode:lr-tb;text-anchor:start;fill:#ffffff;fill-opacity:1;stroke-width:0.60219616"
       id="path4670" />
    <path
       d="m 131.86415,97.555087 h 1.99111 v 6.229173 h -1.99111 z m 0,-2.424929 h 1.99111 v 1.624035 h -1.99111 z"
       style="font-style:normal;font-variant:normal;font-weight:bold;font-stretch:normal;font-size:11.39049435px;font-family:sans-serif;-inkscape-font-specification:'sans-serif, Bold';font-variant-ligatures:normal;font-variant-caps:normal;font-variant-numeric:normal;font-feature-settings:normal;text-align:start;writing-mode:lr-tb;text-anchor:start;fill:#ffffff;fill-opacity:1;stroke-width:0.60219616"
       id="path4672" />
    <path
       d="m 142.03105,99.99114 v 3.79312 h -2.00223 v -0.61735 -2.28589 q 0,-0.80645 -0.0389,-1.112351 -0.0334,-0.305897 -0.12236,-0.450503 -0.1168,-0.194661 -0.31702,-0.300335 -0.20023,-0.111235 -0.45607,-0.111235 -0.62292,0 -0.97887,0.483873 -0.35595,0.478312 -0.35595,1.329261 v 3.06453 h -1.99111 v -6.229173 h 1.99111 v 0.912129 q 0.4505,-0.545053 0.95662,-0.800894 0.50612,-0.261403 1.11792,-0.261403 1.07898,0 1.63515,0.66185 0.56174,0.66185 0.56174,1.924371 z"
       style="font-style:normal;font-variant:normal;font-weight:bold;font-stretch:normal;font-size:11.39049435px;font-family:sans-serif;-inkscape-font-specification:'sans-serif, Bold';font-variant-ligatures:normal;font-variant-caps:normal;font-variant-numeric:normal;font-feature-settings:normal;text-align:start;writing-mode:lr-tb;text-anchor:start;fill:#ffffff;fill-opacity:1;stroke-width:0.60219616"
       id="path4674" />
    <path
       d="m 148.11562,102.72753 q -0.41157,0.54505 -0.90656,0.80089 -0.495,0.25584 -1.14573,0.25584 -1.14016,0 -1.88543,-0.89544 -0.74528,-0.90101 -0.74528,-2.29145 0,-1.396001 0.74528,-2.285883 0.74527,-0.895444 1.88543,-0.895444 0.65073,0 1.14573,0.255841 0.49499,0.255841 0.90656,0.806456 v -0.923253 h 2.00224 v 5.600693 q 0,1.50168 -0.95106,2.29145 -0.9455,0.79533 -2.74751,0.79533 -0.58399,0 -1.12904,-0.089 -0.54505,-0.089 -1.09567,-0.27253 v -1.55173 q 0.52281,0.30033 1.02337,0.44494 0.50055,0.15017 1.00667,0.15017 0.97888,0 1.43494,-0.42826 0.45606,-0.42826 0.45606,-1.34039 z m -1.31257,-3.876552 q -0.61736,0 -0.96219,0.456065 -0.34483,0.456065 -0.34483,1.290327 0,0.85651 0.33371,1.30146 0.33371,0.43937 0.97331,0.43937 0.62292,0 0.96775,-0.45606 0.34482,-0.45606 0.34482,-1.28477 0,-0.834262 -0.34482,-1.290327 -0.34483,-0.456065 -0.96775,-0.456065 z"
       style="font-style:normal;font-variant:normal;font-weight:bold;font-stretch:normal;font-size:11.39049435px;font-family:sans-serif;-inkscape-font-specification:'sans-serif, Bold';font-variant-ligatures:normal;font-variant-caps:normal;font-variant-numeric:normal;font-feature-settings:normal;text-align:start;writing-mode:lr-tb;text-anchor:start;fill:#ffffff;fill-opacity:1;stroke-width:0.60219616"
       id="path4676" />
    <path
       d="m 156.08564,95.480549 h 2.14128 v 6.685241 h 3.75975 v 1.61847 h -5.90103 z"
       style="font-style:normal;font-variant:normal;font-weight:bold;font-stretch:normal;font-size:11.39049435px;font-family:sans-serif;-inkscape-font-specification:'sans-serif, Bold';font-variant-ligatures:normal;font-variant-caps:normal;font-variant-numeric:normal;font-feature-settings:normal;text-align:start;writing-mode:lr-tb;text-anchor:start;fill:#ffffff;fill-opacity:1;stroke-width:0.60219616"
       id="path4678" />
    <path
       d="m 163.25475,97.555087 h 1.99111 v 6.229173 h -1.99111 z m 0,-2.424929 h 1.99111 v 1.624035 h -1.99111 z"
       style="font-style:normal;font-variant:normal;font-weight:bold;font-stretch:normal;font-size:11.39049435px;font-family:sans-serif;-inkscape-font-specification:'sans-serif, Bold';font-variant-ligatures:normal;font-variant-caps:normal;font-variant-numeric:normal;font-feature-settings:normal;text-align:start;writing-mode:lr-tb;text-anchor:start;fill:#ffffff;fill-opacity:1;stroke-width:0.60219616"
       id="path4680" />
    <path
       d="m 166.3749,97.555087 h 1.99111 l 1.55173,4.304803 1.54617,-4.304803 h 1.99668 l -2.45274,6.229173 h -2.18577 z"
       style="font-style:normal;font-variant:normal;font-weight:bold;font-stretch:normal;font-size:11.39049435px;font-family:sans-serif;-inkscape-font-specification:'sans-serif, Bold';font-variant-ligatures:normal;font-variant-caps:normal;font-variant-numeric:normal;font-feature-settings:normal;text-align:start;writing-mode:lr-tb;text-anchor:start;fill:#ffffff;fill-opacity:1;stroke-width:0.60219616"
       id="path4682" />
    <path
       d="m 180.80212,100.65299 v 0.5673 h -4.6552 q 0.0723,0.70078 0.50612,1.05117 0.43382,0.35039 1.21247,0.35039 0.62848,0 1.28476,-0.18353 0.66185,-0.1891 1.35707,-0.5673 v 1.53504 q -0.70634,0.26697 -1.41268,0.40045 -0.70635,0.13904 -1.41269,0.13904 -1.69078,0 -2.63072,-0.85651 -0.93437,-0.86207 -0.93437,-2.4138 0,-1.523926 0.91769,-2.397124 0.92325,-0.873197 2.53616,-0.873197 1.46831,0 2.34707,0.884321 0.88432,0.884321 0.88432,2.36375 z m -2.04673,-0.66185 q 0,-0.5673 -0.33371,-0.912129 -0.32814,-0.350392 -0.86207,-0.350392 -0.57842,0 -0.93994,0.328145 -0.36151,0.322582 -0.4505,0.934376 z"
       style="font-style:normal;font-variant:normal;font-weight:bold;font-stretch:normal;font-size:11.39049435px;font-family:sans-serif;-inkscape-font-specification:'sans-serif, Bold';font-variant-ligatures:normal;font-variant-caps:normal;font-variant-numeric:normal;font-feature-settings:normal;text-align:start;writing-mode:lr-tb;text-anchor:start;fill:#ffffff;fill-opacity:1;stroke-width:0.60219616"
       id="path4684" />
    <path
       d="m 187.1759,97.749749 v 1.5128 q -0.63961,-0.266965 -1.23471,-0.400447 -0.59511,-0.133483 -1.12348,-0.133483 -0.5673,0 -0.84539,0.144606 -0.27253,0.139044 -0.27253,0.433818 0,0.239156 0.20579,0.367076 0.21135,0.127921 0.75084,0.1891 l 0.35039,0.05006 q 1.52948,0.194665 2.05785,0.639605 0.52837,0.44494 0.52837,1.396 0,0.99556 -0.73415,1.49612 -0.73416,0.50055 -2.19134,0.50055 -0.61735,0 -1.2792,-0.10011 -0.65629,-0.0945 -1.35151,-0.28921 v -1.5128 q 0.59511,0.28921 1.21802,0.43382 0.62848,0.1446 1.27365,0.1446 0.58398,0 0.87876,-0.16129 0.29477,-0.16129 0.29477,-0.47831 0,-0.26696 -0.20579,-0.39488 -0.20022,-0.13349 -0.80645,-0.20579 l -0.35039,-0.0445 q -1.32926,-0.16686 -1.86319,-0.61736 -0.53393,-0.4505 -0.53393,-1.368193 0,-0.989994 0.67853,-1.468306 0.67854,-0.478312 2.0801,-0.478312 0.55062,0 1.15685,0.08343 0.60623,0.08343 1.31814,0.261403 z"
       style="font-style:normal;font-variant:normal;font-weight:bold;font-stretch:normal;font-size:11.39049435px;font-family:sans-serif;-inkscape-font-specification:'sans-serif, Bold';font-variant-ligatures:normal;font-variant-caps:normal;font-variant-numeric:normal;font-feature-settings:normal;text-align:start;writing-mode:lr-tb;text-anchor:start;fill:#ffffff;fill-opacity:1;stroke-width:0.60219616"
       id="path4686" />
  </g>
</svg>
